<?xml version="1.0" standalone="no"?>
<!DOCTYPE svg PUBLIC "-//W3C//DTD SVG 20010904//EN"
 "http://www.w3.org/TR/2001/REC-SVG-20010904/DTD/svg10.dtd">
<svg version="1.0" xmlns="http://www.w3.org/2000/svg"
 width="500.000000pt" height="500.000000pt" viewBox="0 0 500.000000 500.000000"
 preserveAspectRatio="xMidYMid meet">
<metadata>
Created by potrace 1.14, written by Peter Selinger 2001-2017
</metadata>
<g transform="translate(0.000000,500.000000) scale(0.100000,-0.100000)"
fill="#000000" stroke="none">
<path d="M2365 4970 c6 -10 4 -12 -7 -7 -9 3 -21 0 -27 -6 -8 -8 -11 -8 -11 2
0 10 -3 11 -14 2 -11 -9 -15 -9 -18 1 -4 10 -8 10 -21 -1 -14 -11 -17 -11 -17
0 -1 9 -4 8 -11 -4 -8 -14 -14 -16 -25 -6 -10 8 -14 9 -14 0 0 -9 -5 -9 -20
-1 -12 7 -20 7 -20 1 0 -5 -9 -8 -20 -6 -11 2 -20 1 -20 -3 0 -4 -17 -8 -37
-10 -63 -3 -68 -4 -82 -16 -12 -9 -13 -8 -6 4 7 12 6 13 -6 3 -8 -6 -25 -13
-39 -15 -14 -1 -28 -7 -32 -13 -5 -6 -8 -4 -8 4 0 11 -4 10 -16 -5 -8 -10 -13
-13 -9 -6 3 6 1 12 -4 12 -6 0 -11 -4 -11 -10 0 -5 -6 -7 -14 -4 -8 3 -17 0
-21 -6 -5 -8 -11 -8 -21 1 -12 10 -15 10 -12 -2 2 -8 -3 -13 -11 -11 -7 1 -19
-3 -27 -9 -11 -9 -14 -8 -14 2 -1 9 -4 8 -11 -4 -6 -9 -14 -15 -20 -12 -5 4
-9 2 -9 -4 0 -10 -18 -10 -37 2 -6 4 -15 2 -19 -4 -4 -8 -3 -9 4 -5 7 4 12 2
12 -3 0 -10 -17 -15 -47 -14 -7 1 -13 -4 -13 -10 0 -6 -3 -7 -7 -4 -3 4 -12
-1 -20 -11 -8 -9 -12 -11 -8 -4 3 6 1 12 -4 12 -6 0 -11 -5 -11 -11 0 -6 -9
-9 -20 -6 -11 3 -18 2 -16 -2 3 -4 -4 -13 -16 -20 -16 -10 -19 -10 -13 1 3 7
1 6 -7 -2 -7 -9 -20 -15 -28 -15 -20 1 -39 -18 -32 -30 3 -5 -3 -3 -13 5 -10
8 -16 10 -13 5 4 -6 -5 -15 -18 -22 -18 -8 -23 -8 -18 0 3 7 -1 4 -9 -5 -8
-10 -17 -15 -20 -11 -4 3 -7 0 -7 -7 0 -7 -3 -10 -7 -7 -3 4 -12 -1 -20 -11
-10 -11 -12 -12 -8 -2 4 8 -3 4 -14 -9 -13 -14 -21 -18 -21 -10 0 11 -2 11
-10 -1 -5 -8 -10 -11 -10 -7 0 4 -6 2 -14 -5 -8 -7 -11 -17 -8 -22 3 -5 0 -6
-5 -3 -6 4 -22 -2 -36 -13 -14 -11 -30 -20 -36 -20 -5 0 -15 -8 -20 -17 -6
-10 -11 -14 -11 -9 0 5 -11 -1 -25 -14 -14 -13 -25 -21 -25 -17 0 3 -14 -7
-32 -23 -17 -16 -35 -27 -40 -24 -4 3 -8 -2 -8 -10 0 -9 -6 -15 -12 -13 -7 1
-12 -4 -10 -11 1 -8 -3 -12 -9 -10 -7 2 -31 -15 -54 -39 -24 -24 -48 -43 -54
-43 -6 0 -11 -7 -11 -17 0 -9 -3 -13 -7 -10 -3 4 -19 -9 -36 -28 -16 -19 -33
-32 -38 -29 -5 3 -9 1 -9 -5 0 -17 -72 -91 -83 -84 -6 3 -7 2 -4 -3 8 -13 -9
-39 -25 -39 -7 0 -12 -9 -10 -19 2 -11 -1 -15 -7 -11 -6 3 -11 -1 -11 -10 0
-9 -4 -13 -10 -10 -5 3 -10 -3 -10 -15 0 -12 -5 -18 -10 -15 -6 3 -10 1 -10
-5 0 -6 -11 -21 -23 -33 -13 -12 -22 -28 -19 -36 3 -8 0 -11 -6 -7 -6 3 -13
-3 -17 -14 -3 -11 -11 -20 -16 -20 -5 0 -9 -6 -9 -13 0 -7 -9 -23 -20 -35 -12
-12 -17 -22 -13 -22 4 0 0 -5 -10 -11 -9 -6 -15 -14 -12 -20 4 -5 1 -9 -5 -9
-6 0 -8 -4 -5 -10 3 -5 -1 -10 -9 -10 -10 0 -13 -7 -11 -20 2 -11 1 -19 -3
-17 -4 3 -18 -10 -32 -27 -24 -31 -24 -31 -1 -11 l24 20 -14 -22 c-8 -13 -17
-23 -22 -23 -4 0 -6 -4 -3 -9 3 -5 -1 -12 -10 -15 -9 -4 -14 -13 -10 -21 3 -8
1 -15 -4 -15 -5 0 -14 -10 -21 -21 -9 -17 -8 -20 3 -14 7 3 4 -1 -6 -9 -11 -9
-16 -16 -11 -16 5 0 4 -5 -3 -12 -7 -7 -12 -20 -12 -31 0 -10 -4 -15 -10 -12
-6 3 -7 -1 -4 -9 4 -10 1 -16 -7 -16 -7 0 -9 -3 -6 -6 3 -4 1 -16 -5 -28 -7
-11 -13 -23 -13 -26 -1 -3 -7 -18 -13 -33 -7 -16 -12 -33 -12 -38 0 -5 -6 -9
-12 -9 -9 0 -8 -4 2 -10 10 -6 11 -10 3 -10 -7 0 -13 -9 -13 -21 0 -11 -4 -18
-9 -15 -4 3 -7 -6 -5 -19 1 -14 -2 -25 -7 -25 -6 0 -7 -4 -4 -10 3 -6 3 -16
-2 -22 -4 -7 -9 -24 -11 -38 -2 -13 -8 -30 -14 -37 -5 -7 -7 -17 -3 -23 3 -5
1 -10 -5 -10 -6 0 -8 -5 -5 -10 4 -6 1 -17 -5 -25 -10 -12 -10 -15 1 -15 12 0
12 -2 0 -9 -7 -5 -10 -14 -7 -20 4 -6 3 -11 -2 -11 -5 0 -8 -11 -7 -25 2 -14
-2 -25 -8 -25 -5 0 -7 -3 -4 -7 4 -3 1 -13 -6 -21 -10 -13 -9 -14 2 -8 10 7
12 3 6 -14 -4 -12 -9 -30 -10 -39 -2 -9 -4 -16 -5 -16 -2 0 -7 -59 -10 -132
-2 -29 -6 -53 -10 -53 -4 0 -7 -7 -7 -15 0 -8 5 -15 10 -15 5 0 4 -7 -3 -15
-7 -8 -8 -15 -3 -15 5 0 9 -9 9 -20 0 -11 -3 -20 -6 -20 -4 0 -6 -13 -6 -30 0
-16 4 -30 10 -30 6 0 5 -4 -2 -9 -8 -4 -14 -12 -14 -16 0 -4 6 -12 14 -16 8
-6 9 -12 3 -16 -12 -9 -13 -52 -2 -70 5 -8 3 -13 -5 -13 -8 0 -9 -3 -3 -8 12
-8 13 -37 2 -48 -4 -4 0 -16 10 -26 13 -14 13 -18 2 -18 -11 0 -11 -2 1 -10
12 -8 12 -10 1 -10 -9 0 -10 -4 -4 -13 5 -6 9 -27 8 -45 0 -17 2 -32 6 -32 3
0 5 -11 4 -25 -2 -14 0 -25 5 -25 4 0 6 -9 3 -20 -3 -11 1 -28 8 -37 12 -14
12 -16 0 -8 -11 6 -12 5 -5 -6 5 -8 10 -25 12 -39 2 -13 9 -31 15 -39 10 -12
9 -13 -3 -6 -12 7 -11 3 3 -18 9 -15 13 -27 8 -27 -5 0 -7 -9 -4 -20 3 -11 8
-20 12 -20 4 0 8 -12 9 -27 1 -15 7 -30 13 -34 8 -5 8 -9 -1 -14 -8 -5 -6 -11
7 -22 10 -8 12 -12 5 -8 -6 3 -12 1 -12 -4 0 -6 5 -11 11 -11 5 0 7 -5 4 -10
-3 -6 -1 -10 4 -10 6 0 11 -10 11 -23 0 -12 8 -33 17 -46 12 -18 13 -22 2 -16
-11 7 -12 6 -2 -7 7 -8 10 -18 6 -21 -3 -4 -1 -7 5 -7 7 0 12 -9 12 -20 0 -11
5 -20 11 -20 5 0 7 -4 4 -10 -3 -5 -2 -10 4 -10 6 0 8 -7 5 -15 -4 -8 -1 -15
5 -15 6 0 11 -12 11 -26 0 -17 4 -23 12 -18 8 5 9 2 5 -9 -3 -10 -2 -17 4 -17
6 0 7 -5 4 -10 -3 -6 2 -10 12 -11 10 0 13 -3 6 -6 -10 -3 -9 -8 2 -20 8 -8
13 -19 10 -24 -4 -5 -1 -9 5 -9 6 0 8 -4 5 -10 -3 -5 -1 -10 4 -10 6 0 11 -7
11 -15 0 -8 4 -15 10 -15 5 0 7 -6 4 -14 -3 -7 2 -16 10 -19 9 -4 16 -13 16
-22 0 -8 5 -15 12 -15 6 0 8 -3 5 -7 -4 -3 1 -12 11 -20 10 -9 11 -12 2 -7
-15 8 14 -33 35 -48 6 -4 6 -8 2 -8 -5 0 -1 -7 7 -16 9 -8 14 -20 11 -25 -4
-5 1 -9 9 -9 9 0 15 -6 13 -13 -1 -6 5 -11 13 -9 8 2 12 0 7 -4 -4 -4 1 -16
10 -27 11 -12 12 -17 4 -12 -10 5 -12 4 -7 -3 4 -7 14 -12 23 -12 9 0 14 -3
10 -6 -3 -4 4 -15 16 -26 12 -11 15 -16 7 -12 -8 4 1 -9 20 -28 51 -52 69 -76
63 -82 -4 -3 1 -6 11 -6 9 0 14 -5 11 -10 -3 -6 1 -10 9 -10 9 0 16 -7 16 -15
0 -9 7 -18 15 -21 8 -4 12 -10 9 -15 -3 -5 -2 -9 3 -8 19 3 33 -2 33 -12 0
-15 26 -39 34 -32 3 4 6 -1 6 -9 0 -9 8 -22 17 -29 14 -12 16 -12 8 0 -5 10
-4 12 3 7 7 -4 12 -13 12 -21 0 -7 9 -17 20 -20 11 -3 20 -11 20 -16 0 -5 8
-9 17 -9 9 0 14 -3 10 -6 -8 -8 18 -34 33 -34 6 0 13 -7 16 -15 3 -8 14 -17
25 -20 11 -4 17 -11 14 -16 -4 -5 3 -9 15 -9 12 0 18 -5 15 -10 -3 -6 0 -10 7
-10 11 0 27 -11 84 -59 7 -5 15 -7 18 -4 3 4 6 1 6 -6 0 -7 5 -9 12 -5 8 5 9
1 4 -12 -6 -15 -5 -16 5 -7 10 10 16 9 28 -5 23 -25 77 -53 86 -44 5 4 5 1 1
-5 -4 -7 -2 -13 4 -13 7 0 23 -9 37 -20 14 -11 29 -17 34 -14 5 3 9 0 9 -6 0
-6 5 -8 10 -5 6 3 10 1 10 -5 0 -7 7 -10 15 -7 8 4 17 1 21 -5 5 -7 2 -8 -7
-3 -8 5 -11 4 -6 0 4 -5 18 -10 30 -12 12 -2 23 -8 25 -13 2 -6 12 -10 23 -10
10 0 19 -4 19 -8 0 -4 10 -9 22 -9 13 -1 24 -7 26 -13 2 -5 12 -10 22 -10 10
0 22 -5 25 -10 3 -5 15 -10 26 -10 11 0 17 -4 14 -10 -3 -6 1 -7 10 -4 8 4 23
0 32 -7 14 -12 15 -12 9 -1 -7 11 -4 12 13 3 11 -7 21 -15 21 -20 0 -4 10 -7
23 -6 12 1 28 -2 34 -7 7 -6 20 -8 28 -4 10 3 15 -1 16 -12 0 -9 3 -12 5 -5 4
8 13 9 35 1 18 -6 26 -14 22 -21 -4 -7 1 -6 11 2 10 9 20 11 24 5 8 -11 23
-14 68 -16 19 -1 34 -6 34 -11 0 -5 9 -7 20 -4 11 3 20 1 20 -4 0 -5 5 -9 11
-9 5 0 7 4 4 10 -3 6 1 7 9 4 9 -3 13 -11 10 -16 -4 -6 0 -6 13 0 12 7 24 7
37 0 9 -5 20 -7 23 -4 3 3 14 1 24 -5 14 -7 19 -6 19 2 0 8 5 8 16 -2 12 -10
17 -10 23 0 6 10 10 9 15 -4 5 -13 9 -15 20 -6 7 6 16 8 20 4 10 -10 46 -11
52 -1 3 5 12 4 20 -3 8 -6 14 -8 14 -4 0 4 8 1 17 -6 15 -12 16 -12 10 5 -6
16 -5 17 8 6 9 -7 18 -10 22 -7 3 4 12 -1 20 -11 10 -13 12 -13 8 -1 -5 13 6
15 74 14 52 -1 78 2 74 8 -4 6 -1 7 8 1 21 -13 39 -14 39 -1 0 7 5 5 10 -3 9
-13 10 -13 10 0 0 12 2 12 9 1 6 -9 11 -10 15 -2 5 8 13 8 28 0 12 -7 18 -7
14 -1 -9 15 15 21 42 11 15 -6 21 -5 17 1 -3 6 1 10 10 10 10 0 13 -5 9 -12
-5 -9 -2 -8 10 1 9 8 34 16 54 18 50 4 65 7 80 16 7 5 12 3 12 -5 0 -10 2 -10
9 1 5 8 16 11 26 8 11 -5 14 -3 9 5 -5 7 -2 9 8 5 9 -3 21 0 28 6 10 9 11 9 5
-3 -7 -12 -6 -13 6 -3 9 7 30 14 47 16 18 2 35 7 40 12 4 5 1 5 -7 0 -8 -5
-12 -4 -8 1 3 5 21 9 41 8 20 -1 33 2 30 7 -3 5 6 9 20 9 14 0 26 4 26 8 0 12
44 10 53 -2 5 -6 5 0 2 13 -6 19 -4 23 8 18 8 -3 24 1 35 8 10 8 22 11 26 8 3
-3 16 2 28 13 12 10 18 13 14 7 -5 -9 -2 -11 8 -7 9 3 16 10 16 16 0 5 4 7 9
3 5 -3 13 0 16 6 4 5 14 8 22 5 8 -3 12 -2 9 3 -3 5 1 12 10 15 10 4 13 2 8
-7 -4 -6 4 -2 18 11 13 12 28 19 31 15 4 -3 7 -1 7 6 0 7 5 9 10 6 6 -3 10 -2
10 3 0 5 18 15 40 22 22 7 40 17 40 23 0 5 7 7 15 4 8 -4 17 -1 21 5 5 7 2 8
-6 3 -9 -5 -11 -4 -6 3 4 7 16 12 27 12 11 0 22 7 25 15 4 8 10 12 15 9 5 -3
9 0 9 6 0 6 4 9 9 6 5 -3 11 1 15 9 3 8 13 15 23 15 10 0 30 15 46 33 16 17
26 25 22 17 -3 -8 3 -4 14 9 12 13 21 18 21 12 0 -5 10 0 23 12 13 12 21 26
19 31 -3 5 0 6 6 2 6 -3 17 1 26 10 9 8 20 13 25 10 5 -3 8 2 7 12 0 9 5 16
12 15 6 -2 12 4 12 13 0 8 5 12 10 9 6 -3 10 -2 10 4 0 5 9 13 20 16 11 4 18
10 15 15 -3 5 4 11 15 15 11 4 18 11 15 16 -4 5 1 9 10 9 9 0 13 5 10 10 -3 6
1 10 10 10 8 0 18 7 21 15 4 8 11 12 17 8 6 -3 7 -1 3 5 -4 6 5 18 19 28 13 9
23 20 20 24 -3 5 -1 11 5 15 5 3 10 0 11 -7 0 -7 4 -3 9 10 5 12 14 22 20 22
6 0 9 4 5 9 -3 5 4 12 15 16 11 4 18 10 15 14 -6 11 40 53 48 45 3 -4 5 3 2
15 -2 13 1 21 11 21 8 0 14 7 14 16 0 8 5 12 10 9 6 -3 10 1 10 10 0 8 7 18
15 21 8 4 13 10 10 14 -3 5 8 23 25 42 17 18 33 41 36 50 3 10 10 16 15 12 5
-3 9 -2 8 3 -3 20 3 34 26 58 14 14 21 25 14 25 -7 0 -2 9 11 20 15 13 18 20
9 21 -8 0 -4 5 9 11 13 6 21 17 18 24 -3 8 2 17 10 22 9 5 15 12 15 15 -3 20
0 28 8 22 6 -3 8 4 6 15 -3 14 1 20 13 20 15 0 15 2 2 10 -8 5 -10 10 -4 10 7
0 15 11 18 25 4 17 11 23 19 18 7 -4 5 2 -3 12 -9 11 -10 16 -2 11 11 -6 17 5
13 27 0 4 3 7 9 7 5 0 7 7 4 15 -4 8 -2 15 4 15 11 0 28 42 31 78 0 7 5 11 10
7 6 -3 8 4 6 15 -2 11 0 20 4 20 4 0 8 7 9 15 1 8 3 22 4 30 1 8 4 15 8 15 4
0 7 6 8 13 1 12 9 47 12 57 1 3 2 9 1 14 -1 4 3 14 9 21 10 12 19 52 22 93 1
6 5 12 10 12 5 0 6 5 3 10 -3 6 -3 16 2 23 4 6 8 23 8 37 0 14 3 30 7 35 3 6
4 18 3 28 -2 9 1 17 5 17 5 0 9 10 8 23 -2 61 2 88 15 81 8 -5 8 -2 -2 9 -10
13 -11 20 -2 30 8 10 7 17 -1 25 -7 7 -8 12 -2 12 6 0 11 19 12 43 6 160 6
236 1 265 -5 20 -3 32 4 32 8 0 7 4 -1 12 -7 7 -8 17 -1 30 5 10 6 18 2 18 -5
0 -8 12 -7 28 0 15 -4 30 -10 34 -7 5 -7 8 2 8 8 0 10 5 5 13 -7 11 -13 62
-13 115 0 12 -4 22 -8 22 -4 0 -8 9 -9 20 -1 13 2 18 10 13 7 -3 3 4 -8 17
-11 13 -14 20 -7 16 6 -4 12 -2 12 3 0 6 -4 11 -9 11 -6 0 -8 9 -6 20 2 11 -1
20 -7 20 -6 0 -8 3 -5 7 4 3 1 13 -6 21 -10 13 -9 14 1 8 11 -7 12 -4 3 13 -7
12 -9 26 -6 31 3 6 2 10 -2 10 -5 0 -10 12 -11 26 -1 15 -7 33 -13 40 -6 7 -8
18 -5 23 4 5 2 12 -3 16 -5 3 -8 14 -6 25 2 12 0 18 -6 15 -5 -4 -9 2 -9 11 0
22 -22 87 -32 95 -5 3 -9 17 -10 32 -1 15 -6 27 -11 27 -4 0 -5 5 -2 10 3 6 1
10 -5 10 -7 0 -10 7 -6 15 3 8 1 15 -4 15 -6 0 -10 9 -10 20 0 11 -4 20 -10
20 -5 0 -10 11 -10 24 0 13 -5 26 -10 28 -6 2 -12 13 -13 25 0 12 -5 19 -9 17
-7 -5 -10 3 -7 22 0 4 -4 10 -11 14 -6 4 -13 16 -14 26 -2 10 -9 18 -16 16 -6
-1 -9 2 -6 7 4 5 2 12 -4 16 -6 4 -8 11 -5 16 4 5 -1 12 -9 15 -9 3 -13 10
-10 15 3 5 -2 12 -10 15 -9 3 -13 10 -10 15 3 5 0 14 -6 21 -38 45 -50 62 -50
69 0 4 -7 15 -16 23 -8 9 -16 25 -17 35 0 11 -4 19 -7 19 -20 -2 -29 4 -24 17
4 10 0 15 -11 15 -9 0 -14 4 -10 9 3 5 -3 16 -14 23 -11 8 -25 26 -31 40 -7
14 -23 32 -36 39 -18 9 -21 15 -12 21 10 6 10 8 1 8 -18 0 -63 52 -56 64 3 6
3 8 -1 4 -5 -4 -23 9 -42 28 -19 19 -40 34 -46 34 -6 0 -9 3 -5 6 3 3 -6 17
-21 31 -15 14 -26 29 -24 34 1 5 -1 8 -5 8 -21 -3 -33 2 -33 16 0 8 -7 15 -15
15 -9 0 -18 7 -21 15 -4 8 -10 13 -14 10 -5 -3 -12 4 -15 16 -6 17 -9 19 -16
8 -6 -10 -9 -7 -10 11 0 14 -3 19 -6 13 -2 -7 -9 -13 -14 -13 -6 0 -8 4 -5 9
8 12 -19 33 -29 23 -5 -4 -5 -2 -2 4 4 7 -1 18 -10 25 -11 10 -14 10 -9 2 5
-9 2 -11 -8 -7 -9 3 -13 10 -10 15 3 5 -2 9 -10 9 -8 0 -20 8 -25 18 -6 9 -11
13 -11 7 0 -7 -3 -7 -8 0 -9 13 -42 34 -64 41 -10 4 -18 13 -18 20 0 8 -3 13
-7 13 -23 -4 -43 2 -38 11 3 6 -3 10 -14 10 -12 0 -21 5 -21 10 0 6 -7 10 -15
10 -8 0 -15 5 -15 11 0 5 -4 8 -9 4 -6 -3 -20 5 -32 17 -12 13 -19 17 -14 10
4 -8 -11 -2 -34 12 -22 14 -48 26 -56 26 -10 0 -13 5 -9 13 4 6 3 9 -1 4 -5
-4 -19 0 -33 9 -13 9 -21 11 -17 4 5 -8 1 -8 -13 1 -12 7 -18 18 -14 24 3 5
-2 4 -11 -4 -13 -10 -17 -10 -17 -1 0 7 -6 10 -14 7 -8 -3 -17 1 -20 9 -3 8
-17 14 -31 14 -14 0 -25 5 -25 12 0 6 -3 8 -7 5 -3 -4 -17 0 -31 9 -13 9 -21
11 -18 5 5 -7 1 -9 -8 -5 -9 3 -16 10 -16 14 0 5 -9 6 -20 3 -11 -3 -20 -1
-20 5 0 5 -7 13 -16 16 -10 4 -13 2 -8 -6 5 -8 2 -9 -12 -4 -10 5 -25 9 -31 9
-7 0 -13 7 -13 16 0 9 -3 12 -8 6 -9 -13 -35 -19 -28 -6 3 5 -1 11 -9 15 -8 3
-17 0 -21 -6 -4 -6 -9 -7 -13 0 -5 8 -34 15 -89 22 -2 0 0 5 4 11 4 8 0 8 -15
0 -16 -9 -21 -9 -21 1 0 9 -3 9 -10 -2 -5 -8 -10 -10 -10 -4 0 6 -10 10 -22
10 -13 -1 -29 2 -35 7 -9 6 -13 5 -13 -4 0 -11 -2 -11 -10 1 -5 8 -10 11 -10
7 0 -4 -9 -3 -20 3 -15 8 -20 8 -20 -2 0 -9 -3 -9 -10 2 -9 13 -10 13 -11 0 0
-10 -3 -8 -9 5 -5 11 -9 16 -9 10 -1 -5 -12 -11 -26 -11 -14 -1 -23 1 -20 5 2
4 -2 8 -10 8 -8 0 -12 -5 -8 -10 3 -5 -4 -4 -16 2 -11 7 -21 9 -21 6 0 -3 -10
-1 -21 6 -17 8 -20 8 -14 -1 5 -9 1 -10 -15 -5 -17 6 -21 4 -14 -6 6 -12 5
-12 -8 -1 -8 7 -24 9 -33 5 -13 -4 -16 -3 -10 6 6 10 3 11 -14 2 -14 -8 -21
-8 -21 -1 0 7 -6 8 -18 1 -10 -5 -24 -6 -32 -1 -8 5 -21 5 -30 0 -9 -5 -23 -4
-34 2 -15 8 -17 8 -11 -2z"/>
</g>
</svg>
